DBRep_DrawableShape

CASCADE Topology V1, (c) Matra-Datavision
Locations 11
1
              1               0               0               0 
              0               1               0               0 
              0               0               1               0 
1
              1               0               0               0 
              0               1               0               0 
              0               0               1               0 
2  2 -1 0
1
              1               0               0               0 
              0               1               0               0 
              0               0               1               0 
1
              1               0               0               0 
              0               1               0               0 
              0               0               1               0 
1
              1               0               0               0 
              0               1               0               0 
              0               0               1               0 
2  4 1 5 1 6 1 0
1
              1               0               0               0 
              0               1               0               0 
              0               0               1               0 
1
              1               0               0               0 
              0               1               0            1400 
              0               0               1           -2700 
2  8 1 9 1 6 1 0
2  4 1 5 1 9 -1 8 -1 0
Curve2ds 16
1 0 3100 1 0 
1 0 0 0 1 
1 3799.9999999999995 0 0 1 
1 0 0 1 0 
1 0 0 1 0 
1 0 0 1 0 
1 2700 1400 -1 0 
1 1600 0 0 -1 
1 0 0 0 1 
1 1100 1400 0 1 
1 0 0 0 -1 
1 0 0 0 1 
1 2700 1400 0 1 
1 0 -1500 1 0 
1 0 0 1 0 
1 2700 2900 -1 0 
Curves 28
1 0 200.00000000000017 -2650.0000000000009 0 -1.2999999999999999e-16 1 
1 140 200.00000000000017 -2650.0000000000009 -1 0 0 
1 140 200.00000000000017 -2650.0000000000009 0 -1.2999999999999999e-16 1 
1 140 199.99999999999997 -1149.9999999999998 -1 0 0 
1 0 1200 -2650.0000000000005 0 -1 -4.4e-16 
1 140 1200 -2650.0000000000005 -1 0 0 
1 140 1200 -2650.0000000000005 0 -1 -4.4e-16 
1 0 1200 -1150 0 0 -1 
1 140 1200 -1150 -1 0 0 
1 140 1200 -1150 0 0 -1 
1 0 199.99999999999997 -1149.9999999999998 0 1 -2.2e-16 
1 140 199.99999999999997 -1149.9999999999998 0 1 -2.2e-16 
1 0 3100 0 0 0 -1 
1 5100 3100 0 -1 -0 -0 
1 5100 3100 0 0 0 -1 
1 5100 3100 -3799.9999999999995 -1 -0 -0 
1 0 0 0 0 1 0 
1 0 0 -3799.9999999999995 0 1 0 
1 0 0 0 0 0 -1 
1 0 0 0 0 0 1 
1 0 0 1600 -0 1 0 
1 0 0 0 -0 1 0 
1 0 1500 0 0 0 1 
1 5100 0 0 -1 -0 -0 
1 5100 0 0 0 1 0 
1 5100 0 0 0 0 -1 
1 5100 0 -3799.9999999999995 0 1 0 
1 5100 0 -3799.9999999999995 -1 -0 -0 
Polygon3D 0
PolygonOnTriangulations 0
Surfaces 17
1 140 200.00000000000017 -2650.0000000000009 0 -1 -1.2999999999999999e-16 0 1.2999999999999999e-16 -1 1 0 0 
1 0 0 0 -1 0 0 0 0 1 0 1 -0 
1 140 1200 -2650.0000000000005 0 4.4e-16 -1 0 1 4.4e-16 1 -0 0 
1 140 0 0 -1 0 0 0 0 1 0 1 -0 
1 140 199.99999999999997 -1149.9999999999998 0 2.2e-16 1 0 -1 2.2e-16 1 0 -0 
1 140 1200 -1150 0 1 0 0 -0 1 1 0 -0 
1 5100 3100 0 -0 1 0 0 0 1 1 0 -0 
1 0 0 0 1 -0 0 0 0 -1 0 1 0 
1 5100 0 0 0 0 1 1 0 -0 -0 1 0 
1 5100 0 0 1 -0 0 0 0 -1 0 1 0 
1 5100 0 -3799.9999999999995 0 0 1 1 0 -0 -0 1 0 
1 5100 0 0 -0 1 0 0 0 1 1 0 -0 
1 0 0 0 1 0 -0 0 0 1 0 -1 0 
1 0 0 0 -0 1 0 0 0 1 1 0 -0 
1 0 0 1600 0 0 1 1 0 -0 -0 1 0 
1 0 0 0 0 0 1 1 0 -0 -0 1 0 
1 0 1500 0 -0 1 0 0 0 1 1 0 -0 
Triangulations 0

TShapes 83
Ve
1e-07
0 200 -2650
0 0

0101101
*
Ve
1e-07
0 200 -1150
0 0

0101101
*
Ed
 1e-07 1 1 0
1  1 0 0 1500
4 C0 1 0 2 0
0

0101000
+83 3 -82 3 *
Ve
1e-07
140 200 -2650
0 0

0101101
*
Ed
 1e-07 1 1 0
1  2 0 0 140
4 C0 1 0 3 0
0

0101000
+80 0 -83 3 *
Ve
1e-07
140 200 -1150
0 0

0101101
*
Ed
 1e-07 1 1 0
1  3 0 0 1500
4 C0 1 0 4 0
0

0101000
+80 0 -78 0 *
Ed
 1e-07 1 1 0
1  4 0 0 140
4 C0 1 0 5 0
0

0101000
+78 0 -82 3 *
Wi

0101100
-81 2 -79 2 +77 2 +76 2 *
Fa
0  1e-07 1 2

0101000
+75 0 *
Ve
1e-07
0 1200 -2650
0 0

0101101
*
Ed
 1e-07 1 1 0
1  5 0 0 1000
4 C0 3 0 2 0
0

0101000
+73 3 -83 3 *
Ve
1e-07
140 1200 -2650
0 0

0101101
*
Ed
 1e-07 1 1 0
1  6 0 0 140
4 C0 3 0 6 0
0

0101000
+71 0 -73 3 *
Ed
 1e-07 1 1 0
1  7 0 0 1000
4 C0 3 0 4 0
0

0101000
+71 0 -80 0 *
Wi

0101100
-72 2 -70 2 +69 2 +79 2 *
Fa
0  1e-07 3 2

0101000
+68 0 *
Ve
1e-07
0 1200 -1150
0 0

0101101
*
Ed
 1e-07 1 1 0
1  8 0 0 1500
4 C0 6 0 2 0
0

0101000
+66 3 -73 3 *
Ve
1e-07
140 1200 -1150
0 0

0101101
*
Ed
 1e-07 1 1 0
1  9 0 0 140
4 C0 6 0 5 0
0

0101000
+64 0 -66 3 *
Ed
 1e-07 1 1 0
1  10 0 0 1500
4 C0 6 0 4 0
0

0101000
+64 0 -71 0 *
Wi

0101100
-65 2 -63 2 +62 2 +70 2 *
Fa
0  1e-07 6 2

0101000
+61 0 *
Ed
 1e-07 1 1 0
1  11 0 0 1000
4 C0 5 0 2 0
0

0101000
+82 3 -66 3 *
Ed
 1e-07 1 1 0
1  12 0 0 1000
4 C0 5 0 4 0
0

0101000
+78 0 -64 0 *
Wi

0101100
-59 2 -76 2 +58 2 +63 2 *
Fa
0  1e-07 5 2

0101000
+57 0 *
Wi

0101100
-77 0 -69 0 -62 0 -58 0 *
Fa
0  1e-07 4 0

0101000
-55 0 *
Wi

0101100
+81 2 +59 2 +65 2 +72 2 *
Fa
0  1e-07 2 2

0101000
+53 0 *
Sh

0101100
+74 0 +67 0 +60 0 +56 0 -54 2 +52 0 *
So

0100000
+51 0 *
Ve
1e-07
0 3100 0
0 0

0101101
*
Ve
1e-07
0 3100 -3800
0 0

0101101
*
Ed
 1e-07 1 1 0
1  13 0 0 3800
4 C0 7 0 8 0
2  1 8 0 0 3800
0

0101000
+49 0 -48 0 *
Ve
1e-07
5100 3100 0
0 0

0101101
*
Ed
 1e-07 1 1 0
1  14 0 -0 5100
4 C0 7 0 9 0
0

0101000
+46 0 -49 0 *
Ve
1e-07
5100 3100 -3800
0 0

0101101
*
Ed
 1e-07 1 1 0
1  15 0 0 3800
4 C0 7 0 10 0
0

0101000
+46 0 -44 0 *
Ed
 1e-07 1 1 0
1  16 0 -0 5100
4 C0 7 0 11 0
0

0101000
+44 0 -48 0 *
Wi

0101100
-47 0 -45 0 +43 0 +42 0 *
Fa
0  1e-07 7 0

0101000
+41 0 *
Ve
1e-07
0 0 0
0 0

0101101
*
Ed
 1e-07 1 1 0
1  17 0 0 3100
4 C0 9 0 8 0
2  2 8 0 0 3100
0

0101000
+39 0 -49 0 *
Ve
1e-07
0 0 -3800
0 0

0101101
*
Ed
 1e-07 1 1 0
1  18 0 0 3100
4 C0 11 0 8 0
2  3 8 0 0 3100
0

0101000
+37 0 -48 0 *
Ed
 1e-07 1 1 0
1  19 0 0 3800
4 C0 12 0 8 0
2  4 8 0 0 3800
0

0101000
+39 0 -37 0 *
Wi

0101100
-47 7 -38 7 +36 7 +35 7 *
Wi

0101100
+72 2 +65 2 +59 2 +81 2 *
Ve
1e-07
0 0 1600
0 0

0101101
*
Ve
1e-07
0 0 0
0 0

0101101
*
Ed
 1e-07 1 1 0
1  20 0 0 1600
2  5 13 0 0 1600
2  6 14 0 0 1600
2  7 8 11 0 1600
0

0101000
-32 0 +31 0 *
Ve
1e-07
0 1500 1600
0 0

0101101
*
Ed
 1e-07 1 1 0
1  21 0 0 1500
2  8 13 0 0 1500
2  9 15 0 0 1500
2  10 8 11 0 1500
0

0101000
-29 0 +32 0 *
Ve
1e-07
0 1500 0
0 0

0101101
*
Ed
 1e-07 1 1 0
1  22 0 0 1500
2  11 13 0 0 1500
2  12 16 0 0 1500
2  13 8 11 0 1500
0

0101000
-27 0 +31 0 *
Ed
 1e-07 1 1 0
1  23 0 0 1600
2  14 13 0 0 1600
2  15 17 0 0 1600
2  16 8 11 0 1600
0

0101000
-29 0 +27 0 *
Wi

0101100
+30 10 +28 10 -26 10 -25 10 *
Fa
0  1e-07 8 7

0101000
+34 0 +33 0 +24 0 *
Ve
1e-07
5100 0 0
0 0

0101101
*
Ed
 1e-07 1 1 0
1  24 0 -0 5100
4 C0 9 0 12 0
0

0101000
+22 0 -39 0 *
Ed
 1e-07 1 1 0
1  25 0 0 3100
4 C0 9 0 10 0
0

0101000
+22 0 -46 0 *
Wi

0101100
-38 0 -21 0 +20 0 +45 0 *
Fa
0  1e-07 9 0

0101000
+19 0 *
Ve
1e-07
5100 0 -3800
0 0

0101101
*
Ed
 1e-07 1 1 0
1  26 0 0 3800
4 C0 12 0 10 0
0

0101000
+22 0 -17 0 *
Ed
 1e-07 1 1 0
1  27 0 0 3100
4 C0 11 0 10 0
0

0101000
+17 0 -44 0 *
Wi

0101100
-43 0 -20 0 +16 0 +15 0 *
Fa
0  1e-07 10 0

0101000
+14 0 *
Ed
 1e-07 1 1 0
1  28 0 -0 5100
4 C0 12 0 11 0
0

0101000
+17 0 -37 0 *
Wi

0101100
+36 0 -42 0 -15 0 +12 0 *
Fa
0  1e-07 11 0

0101000
-11 0 *
Wi

0101100
+35 0 -12 0 -16 0 +21 0 *
Fa
0  1e-07 12 0

0101000
-9 0 *
Wi

0101100
-30 0 -28 0 +25 0 +26 0 *
Fa
0  1e-07 13 0

0101000
+7 0 *
Sh

0101100
+40 7 -23 0 +18 7 +13 7 -10 7 -8 7 -67 0 -60 0 -56 0 -74 0 
-6 10 +54 2 *
So

0100000
+5 0 *
CS

0101000
+50 0 +4 0 *
Co

0100000
+3 0 *
Co

1100000
+2 1 *

+1 0 